<?xml version="1.0" encoding="utf-8"?>
<!-- Generator: Adobe Illustrator 23.0.0, SVG Export Plug-In . SVG Version: 6.00 Build 0)  -->
<svg version="1.1" id="Capa_1" xmlns="http://www.w3.org/2000/svg" xmlns:xlink="http://www.w3.org/1999/xlink" x="0px" y="0px"
	 viewBox="0 0 370.27 196.52" style="enable-background:new 0 0 370.27 196.52;" xml:space="preserve">
<style type="text/css">
	.st0{fill:#323B8C;}
	.st1{fill:#FFF12D;}
</style>
<g>
	<path class="st0" d="M151.14,142.93c-4.58,0-8.55,1.65-11.79,4.89c-3.25,3.25-4.89,7.21-4.89,11.79c0,0.45,0.03,0.88,0.06,1.32
		v25.96h4.09v-12.17v-3.25v-0.85c0.24,0.27,0.48,0.55,0.74,0.81c3.24,3.24,7.21,4.89,11.79,4.89c4.59,0,8.57-1.65,11.81-4.89
		s4.89-7.22,4.89-11.82c0-4.58-1.64-8.55-4.89-11.79C159.71,144.58,155.74,142.93,151.14,142.93z M158.53,167.01
		c-2.06,2.06-4.48,3.06-7.39,3.06c-2.9,0-5.31-1-7.37-3.06c-2.06-2.06-3.06-4.48-3.06-7.39c0-2.9,1-5.31,3.06-7.37
		c2.06-2.06,4.47-3.06,7.37-3.06c2.91,0,5.33,1,7.39,3.06c2.06,2.06,3.06,4.47,3.06,7.37C161.59,162.53,160.59,164.95,158.53,167.01
		z"/>
	<path class="st0" d="M192.4,142.93c-4.58,0-8.55,1.65-11.79,4.89c-3.25,3.25-4.89,7.21-4.89,11.79c0,0.45,0.03,0.88,0.06,1.32
		v25.96h4.09v-12.17v-3.25v-0.85c0.24,0.27,0.48,0.55,0.74,0.81c3.24,3.24,7.21,4.89,11.79,4.89c4.59,0,8.57-1.65,11.81-4.89
		s4.89-7.22,4.89-11.82c0-4.58-1.64-8.55-4.89-11.79C200.97,144.58,196.99,142.93,192.4,142.93z M199.79,167.01
		c-2.06,2.06-4.48,3.06-7.39,3.06c-2.9,0-5.31-1-7.37-3.06c-2.06-2.06-3.06-4.48-3.06-7.39c0-2.9,1-5.31,3.06-7.37
		c2.06-2.06,4.47-3.06,7.37-3.06c2.91,0,5.33,1,7.39,3.06c2.06,2.06,3.06,4.47,3.06,7.37C202.85,162.53,201.85,164.95,199.79,167.01
		z"/>
	<g>
		<path class="st0" d="M43.31,56.9c5.21-0.1,9.57,0.83,13.07,2.78c3.51,1.96,6.24,4.49,8.2,7.58c0.98,1.65,1.78,3.56,2.4,5.72
			c0.1,0.36,0.18,0.81,0.23,1.35c0.05,0.54-0.05,0.94-0.31,1.2c-0.26,0.36-0.62,0.57-1.08,0.62c-0.46,0.05-0.98,0.08-1.55,0.08
			h-5.03c-0.57,0-1.1-0.01-1.59-0.04c-0.49-0.03-0.89-0.17-1.2-0.43c-0.46-0.31-0.79-0.75-0.97-1.32c-0.18-0.57-0.4-1.11-0.66-1.62
			c-0.46-0.72-0.96-1.4-1.47-2.05c-0.52-0.64-1.13-1.22-1.86-1.74c-0.98-0.67-2.17-1.21-3.56-1.62c-0.26-0.1-0.54-0.17-0.85-0.19
			c-0.31-0.03-0.59-0.06-0.85-0.12c-0.16-0.05-0.39-0.08-0.7-0.08c-0.62-0.1-1.39-0.12-2.32-0.04c-0.93,0.08-1.65,0.17-2.17,0.27
			c-0.36,0.1-0.7,0.18-1,0.23c-0.31,0.05-0.62,0.15-0.93,0.31c-1.34,0.57-2.54,1.24-3.6,2.01c-1.06,0.77-1.97,1.75-2.75,2.94
			c-0.72,0.98-1.29,2.04-1.7,3.17c-0.41,1.14-0.8,2.35-1.16,3.64c-0.16,0.57-0.26,1.14-0.31,1.7c-0.05,0.57-0.13,1.13-0.23,1.7v1.01
			c-0.1,0.31-0.14,0.65-0.12,1.01c0.03,0.36,0.04,0.72,0.04,1.08c0,0.88,0.03,1.75,0.08,2.63c0.05,0.88,0.18,1.7,0.39,2.48
			c0.05,0.21,0.08,0.39,0.08,0.54s0.03,0.34,0.08,0.54c0.72,2.63,1.7,4.86,2.94,6.69c1.24,1.83,3.02,3.26,5.34,4.29
			c0.46,0.21,0.94,0.39,1.43,0.54c0.49,0.15,1.02,0.31,1.59,0.46c0.31,0.05,0.61,0.06,0.89,0.04c0.28-0.03,0.55,0.01,0.81,0.12
			c0.31,0.1,0.7,0.15,1.16,0.15c0.46,0,0.88-0.05,1.24-0.15c0.26-0.05,0.49-0.06,0.7-0.04c0.21,0.03,0.41,0.01,0.62-0.04
			c0.26-0.05,0.48-0.06,0.66-0.04c0.18,0.03,0.37-0.01,0.58-0.12c0.72-0.21,1.39-0.4,2.01-0.58c0.62-0.18,1.21-0.43,1.78-0.73
			c1.29-0.77,2.32-1.66,3.09-2.67c0.77-1.01,1.44-2.26,2.01-3.75c0.21-0.57,0.35-1.24,0.43-2.01c0.08-0.77-0.17-1.31-0.73-1.62
			c-0.31-0.21-0.71-0.31-1.2-0.31c-0.49,0-0.97,0-1.43,0h-3.94c-0.31,0-0.65,0.01-1.01,0.04c-0.36,0.03-0.7-0.01-1.01-0.12h-0.7
			c-0.21-0.05-0.41-0.09-0.62-0.12c-0.21-0.03-0.39-0.09-0.54-0.19c-0.26-0.21-0.44-0.52-0.54-0.93c-0.1-0.41-0.17-0.86-0.19-1.35
			c-0.03-0.49-0.03-1.01,0-1.55c0.03-0.54,0.04-1.04,0.04-1.51c0-0.41,0.01-0.8,0.04-1.16c0.03-0.36,0.09-0.67,0.19-0.93
			c0.21-0.46,0.49-0.77,0.85-0.93c0.31-0.1,0.57-0.15,0.77-0.15h0.85c0.16-0.05,0.35-0.08,0.58-0.08c0.23,0,0.45,0,0.66,0h2.24
			h11.29c0.88,0,1.87,0,2.98,0c1.11,0,1.84,0.23,2.2,0.7c0.26,0.41,0.39,0.95,0.39,1.62c0,0.67,0,1.31,0,1.93v8.04v12.69
			c0,0.98-0.01,1.92-0.04,2.82c-0.03,0.9-0.38,1.48-1.04,1.74c-0.31,0.15-0.68,0.23-1.12,0.23c-0.44,0-0.86,0-1.28,0
			c-1.03,0-1.92-0.04-2.67-0.12c-0.75-0.08-1.28-0.48-1.59-1.2c-0.21-0.46-0.36-0.98-0.46-1.55c-0.1-0.57-0.28-1.06-0.54-1.47
			c-0.1-0.1-0.23-0.22-0.39-0.35c-0.15-0.13-0.36-0.17-0.62-0.12c-0.41,0.1-0.76,0.31-1.04,0.62c-0.28,0.31-0.58,0.59-0.89,0.85
			c-0.52,0.41-1.01,0.79-1.47,1.12c-0.46,0.34-0.98,0.68-1.55,1.04c-0.67,0.41-1.38,0.75-2.13,1.01c-0.75,0.26-1.51,0.52-2.28,0.77
			c-0.26,0.1-0.53,0.17-0.81,0.19c-0.28,0.03-0.55,0.06-0.81,0.12c-0.41,0.1-0.85,0.15-1.31,0.15c-0.46,0-0.93,0.05-1.39,0.15
			c-0.21,0.05-0.5,0.06-0.89,0.04c-0.39-0.03-0.66-0.07-0.81-0.12h-0.77c-0.26-0.05-0.5-0.08-0.73-0.08c-0.23,0-0.48-0.03-0.74-0.08
			h-0.62c-0.41-0.1-0.83-0.18-1.24-0.23c-0.41-0.05-0.83-0.13-1.24-0.23c-0.36-0.1-0.72-0.19-1.08-0.27
			c-0.36-0.08-0.72-0.17-1.08-0.27c-1.55-0.46-2.91-1.01-4.1-1.62c-3.04-1.6-5.52-3.49-7.43-5.69c-1.91-2.19-3.53-4.91-4.87-8.16
			c-0.31-0.72-0.54-1.44-0.7-2.17c-0.16-0.72-0.36-1.44-0.62-2.17c-0.05-0.26-0.08-0.48-0.08-0.66c0-0.18-0.05-0.4-0.15-0.66
			c-0.1-0.36-0.16-0.73-0.16-1.12s-0.05-0.79-0.15-1.2c-0.1-0.26-0.14-0.48-0.12-0.66c0.03-0.18,0.01-0.4-0.04-0.66v-1.39
			c-0.1-0.26-0.15-0.66-0.15-1.2s0.05-0.94,0.15-1.2v-0.85c0.05-0.31,0.06-0.63,0.04-0.97c-0.03-0.33,0.01-0.63,0.12-0.89
			c0.1-0.46,0.15-0.93,0.15-1.39c0-0.46,0.05-0.9,0.16-1.31c0.15-0.57,0.28-1.12,0.39-1.66c0.1-0.54,0.26-1.1,0.46-1.66
			c0.26-0.72,0.5-1.43,0.73-2.13c0.23-0.7,0.5-1.38,0.81-2.05c0.31-0.72,0.67-1.43,1.08-2.13c0.41-0.7,0.82-1.35,1.24-1.97
			c1.55-2.17,3.3-4.01,5.26-5.53c1.96-1.52,4.33-2.8,7.12-3.83c0.57-0.26,1.19-0.45,1.86-0.58c0.67-0.13,1.34-0.27,2.01-0.43
			c0.26-0.1,0.53-0.15,0.81-0.15c0.28,0,0.55-0.05,0.81-0.15c0.36-0.1,0.71-0.13,1.04-0.08c0.33,0.05,0.68,0.03,1.04-0.08
			c0.1-0.05,0.24-0.05,0.43,0C43.07,56.95,43.21,56.95,43.31,56.9z"/>
	</g>
	<g>
		<path class="st0" d="M263.82,93.41c0.1,0.57,0.12,1.31,0.04,2.24c-0.08,0.93-0.17,1.65-0.27,2.17c-0.1,0.52-0.21,1.01-0.31,1.47
			c-0.1,0.46-0.23,0.9-0.39,1.31c-1.08,2.58-2.76,4.69-5.03,6.34c-0.88,0.62-1.82,1.15-2.82,1.59c-1,0.44-2.08,0.84-3.21,1.2
			c-0.57,0.21-1.16,0.35-1.78,0.43c-0.62,0.08-1.21,0.17-1.78,0.27c-0.26,0.05-0.5,0.08-0.73,0.08c-0.23,0-0.48,0.03-0.74,0.08
			c-0.21,0.05-0.42,0.05-0.66,0c-0.23-0.05-0.48-0.03-0.73,0.08c-0.21,0.05-0.43,0.06-0.66,0.04c-0.23-0.03-0.48-0.04-0.73-0.04
			h-22.59c-0.88,0-1.61-0.04-2.21-0.12s-1.02-0.43-1.28-1.04c-0.15-0.41-0.22-1.04-0.19-1.9c0.03-0.85,0.04-1.56,0.04-2.13V60.07
			c0-0.62-0.01-1.28-0.04-1.97c-0.03-0.7,0.09-1.25,0.35-1.66c0.21-0.36,0.59-0.62,1.16-0.77c0.1-0.05,0.21-0.06,0.31-0.04
			c0.1,0.03,0.21,0.01,0.31-0.04h23.05c0.36,0,0.72-0.01,1.08-0.04c0.36-0.03,0.7-0.01,1,0.04c0.26,0.1,0.52,0.13,0.77,0.08
			c0.26-0.05,0.51-0.05,0.77,0h0.46c0.31,0.1,0.63,0.14,0.97,0.12c0.33-0.03,0.68,0.01,1.04,0.12c0.41,0.1,0.81,0.18,1.2,0.23
			c0.39,0.05,0.79,0.13,1.2,0.23c0.98,0.36,1.91,0.71,2.79,1.04c0.88,0.34,1.67,0.76,2.4,1.28c1.03,0.72,1.88,1.62,2.55,2.71
			c0.67,1.08,1.21,2.32,1.63,3.71c0.1,0.36,0.17,0.72,0.19,1.08c0.03,0.36,0.09,0.75,0.19,1.16c0.05,0.21,0.06,0.41,0.04,0.62
			c-0.03,0.21-0.01,0.41,0.04,0.62c0.05,0.15,0.06,0.35,0.04,0.58c-0.03,0.23-0.07,0.4-0.12,0.5v0.7c0,0.15-0.01,0.34-0.04,0.54
			c-0.03,0.21-0.04,0.36-0.04,0.46c-0.1,0.36-0.17,0.68-0.19,0.97c-0.03,0.28-0.09,0.55-0.19,0.81c-0.67,1.86-1.55,3.38-2.63,4.56
			c-0.36,0.36-0.75,0.67-1.16,0.93c-0.41,0.26-0.77,0.59-1.08,1.01c-0.1,0.1-0.22,0.25-0.35,0.43c-0.13,0.18-0.14,0.4-0.04,0.66
			c0.1,0.41,0.44,0.76,1.01,1.04c0.57,0.28,1.06,0.55,1.47,0.81c1.39,0.93,2.53,2.01,3.4,3.25c0.82,1.19,1.47,2.58,1.93,4.18
			c0.16,0.41,0.26,0.84,0.31,1.28c0.05,0.44,0.13,0.86,0.23,1.28V93.41z M230.17,65.71c-0.26,0.36-0.39,0.81-0.39,1.35s0,1.1,0,1.66
			v4.18c0,0.36-0.01,0.73-0.04,1.12c-0.03,0.39-0.01,0.71,0.04,0.97v0.77c0.1,0.31,0.18,0.58,0.23,0.81
			c0.05,0.23,0.13,0.45,0.23,0.66c0.21,0.26,0.53,0.44,0.97,0.54c0.44,0.1,0.93,0.17,1.47,0.19c0.54,0.03,1.09,0.03,1.66,0
			c0.57-0.03,1.08-0.04,1.55-0.04c0.77,0,1.59,0.01,2.44,0.04c0.85,0.03,1.7,0.04,2.55,0.04c0.85,0,1.66-0.04,2.44-0.12
			s1.44-0.22,2.01-0.43c1.55-0.52,2.71-1.42,3.48-2.71c0.36-0.67,0.59-1.55,0.7-2.63c0.1-1.75-0.16-3.13-0.77-4.14
			c-0.62-1.01-1.52-1.79-2.71-2.36c-0.31-0.1-0.65-0.19-1.01-0.27c-0.36-0.08-0.75-0.17-1.16-0.27c-0.21-0.05-0.52-0.08-0.93-0.08
			c-0.62-0.15-1.33-0.22-2.13-0.19c-0.8,0.03-1.56,0.04-2.28,0.04h-6.58c-0.1,0.05-0.22,0.08-0.35,0.08c-0.13,0-0.25,0.03-0.35,0.08
			C230.73,65.17,230.37,65.4,230.17,65.71z M251.83,94.64c0.1-0.72,0.06-1.5-0.12-2.32c-0.18-0.82-0.37-1.44-0.58-1.86
			c-0.72-1.86-2.14-3.15-4.25-3.87c-0.88-0.26-1.84-0.41-2.9-0.46c-1.06-0.05-2.15-0.08-3.29-0.08h-8.74
			c-0.1,0.1-0.19,0.14-0.27,0.12c-0.08-0.03-0.17-0.04-0.27-0.04c-0.62,0.15-1.03,0.41-1.24,0.77c-0.26,0.41-0.39,0.94-0.39,1.59
			c0,0.65,0,1.25,0,1.82v6.88c0,0.62,0.01,1.25,0.04,1.9c0.03,0.65,0.17,1.15,0.43,1.51c0.21,0.26,0.54,0.45,1.01,0.58
			c0.46,0.13,0.99,0.21,1.59,0.23c0.59,0.03,1.2,0.03,1.82,0c0.62-0.03,1.16-0.04,1.62-0.04c1.55,0,3.04,0.01,4.49,0.04
			c1.44,0.03,2.81-0.05,4.1-0.23c1.29-0.18,2.44-0.49,3.44-0.93c1.01-0.44,1.82-1.12,2.44-2.05c0.26-0.41,0.46-0.89,0.62-1.43
			c0.15-0.54,0.31-1.09,0.46-1.66V94.64z"/>
		<path class="st0" d="M318.89,107.02c0.05,0.21,0.14,0.46,0.27,0.77c0.13,0.31,0.23,0.63,0.31,0.97c0.08,0.34,0.09,0.66,0.04,0.97
			c-0.05,0.31-0.23,0.54-0.54,0.7c-0.41,0.26-1.1,0.36-2.05,0.31c-0.96-0.05-1.74-0.08-2.36-0.08h-3.64c-0.41,0-0.79,0.01-1.12,0.04
			c-0.34,0.03-0.66-0.01-0.97-0.12c-0.57-0.15-0.98-0.46-1.24-0.93c-0.26-0.41-0.45-0.85-0.58-1.31c-0.13-0.46-0.3-0.93-0.5-1.39
			c-0.26-0.82-0.53-1.65-0.81-2.48c-0.28-0.82-0.58-1.62-0.89-2.4c-0.15-0.46-0.3-0.89-0.43-1.28c-0.13-0.39-0.27-0.73-0.42-1.04
			c-0.16-0.31-0.39-0.58-0.7-0.81c-0.31-0.23-0.72-0.4-1.24-0.5c-0.26,0-0.5-0.01-0.73-0.04c-0.23-0.03-0.48-0.04-0.74-0.04h-12.22
			c-0.88,0-1.82-0.01-2.82-0.04c-1.01-0.03-1.79,0.17-2.36,0.58c-0.41,0.31-0.7,0.72-0.85,1.24c-0.15,0.52-0.34,1.03-0.54,1.55
			c-0.41,0.88-0.76,1.79-1.04,2.75c-0.28,0.96-0.61,1.9-0.97,2.82c-0.21,0.52-0.4,1.06-0.58,1.62c-0.18,0.57-0.48,1.01-0.89,1.31
			c-0.26,0.21-0.63,0.35-1.12,0.43c-0.49,0.08-1.03,0.12-1.63,0.12s-1.2-0.01-1.82-0.04c-0.62-0.03-1.16-0.04-1.63-0.04
			c-0.67,0-1.48,0.01-2.44,0.04c-0.96,0.03-1.64-0.09-2.05-0.35c-0.26-0.15-0.4-0.39-0.43-0.7c-0.03-0.31,0-0.63,0.08-0.97
			c0.08-0.33,0.17-0.66,0.27-0.97c0.1-0.31,0.21-0.57,0.31-0.77c0.51-1.19,0.99-2.4,1.43-3.64c0.44-1.24,0.89-2.45,1.35-3.64
			c0.21-0.41,0.36-0.82,0.46-1.24c0.1-0.41,0.26-0.82,0.46-1.24c0.41-1.08,0.82-2.19,1.24-3.33c0.41-1.13,0.82-2.24,1.24-3.33
			c0.41-1.03,0.8-2.05,1.16-3.06c0.36-1.01,0.75-2.02,1.16-3.06c1.19-2.84,2.28-5.7,3.29-8.59c1-2.89,2.1-5.75,3.29-8.59
			c0.1-0.26,0.18-0.49,0.23-0.7c0.05-0.21,0.13-0.44,0.23-0.7c0.41-1.08,0.82-2.19,1.24-3.33c0.41-1.13,0.85-2.24,1.31-3.33
			c0.26-0.57,0.48-1.15,0.66-1.74c0.18-0.59,0.5-1.07,0.97-1.43c0.26-0.15,0.59-0.28,1.01-0.39c0.1-0.05,0.21-0.06,0.31-0.04
			c0.1,0.03,0.21,0.01,0.31-0.04H296c0.57,0,1.15-0.01,1.74-0.04c0.59-0.03,1.07,0.09,1.43,0.35c0.57,0.31,0.94,0.76,1.12,1.35
			c0.18,0.59,0.4,1.2,0.66,1.82c0.36,0.88,0.7,1.74,1.01,2.59s0.64,1.72,1.01,2.59c0.1,0.31,0.21,0.62,0.31,0.93
			c0.1,0.31,0.21,0.62,0.31,0.93c0.41,1.03,0.8,2.05,1.16,3.06c0.36,1.01,0.75,2.02,1.16,3.06c1.03,2.58,2,5.18,2.9,7.81
			c0.9,2.63,1.9,5.23,2.98,7.81c0.1,0.21,0.17,0.4,0.19,0.58c0.03,0.18,0.09,0.37,0.19,0.58c0.31,0.83,0.62,1.65,0.93,2.48
			c0.31,0.83,0.62,1.65,0.93,2.48c0.21,0.41,0.36,0.81,0.46,1.2c0.1,0.39,0.23,0.79,0.39,1.2c0.67,1.65,1.29,3.3,1.86,4.95
			c0.57,1.65,1.19,3.28,1.86,4.87c0.1,0.15,0.15,0.3,0.15,0.43C318.74,106.73,318.79,106.87,318.89,107.02z M298.86,89.31
			c0.67-0.26,0.98-0.7,0.93-1.32c-0.05-0.62-0.21-1.21-0.46-1.78c-0.1-0.21-0.15-0.4-0.15-0.58c0-0.18-0.05-0.37-0.16-0.58
			c-0.67-1.75-1.29-3.53-1.86-5.34c-0.57-1.8-1.21-3.61-1.93-5.42c-0.1-0.26-0.21-0.58-0.31-0.97c-0.1-0.39-0.23-0.75-0.39-1.08
			c-0.16-0.33-0.34-0.63-0.54-0.89c-0.21-0.26-0.46-0.39-0.77-0.39c-0.1,0.1-0.21,0.18-0.31,0.23c-0.1,0.05-0.21,0.13-0.31,0.23
			c-0.41,0.52-0.71,1.13-0.89,1.86c-0.18,0.72-0.4,1.42-0.66,2.09c-0.62,1.44-1.17,2.91-1.66,4.41c-0.49,1.5-1.02,2.99-1.59,4.49
			c-0.21,0.52-0.39,1.02-0.54,1.51c-0.15,0.49-0.31,1.02-0.46,1.59c-0.16,0.41-0.13,0.88,0.08,1.39c0.26,0.36,0.68,0.57,1.28,0.62
			c0.59,0.05,1.2,0.08,1.82,0.08h5.88c0.46,0,0.98,0,1.55,0C297.95,89.46,298.44,89.41,298.86,89.31z"/>
		<path class="st0" d="M327.32,55.58h6.58c0.57,0,1.12,0.01,1.66,0.04c0.54,0.03,0.94,0.22,1.2,0.58c0.26,0.36,0.39,0.84,0.39,1.43
			c0,0.59,0,1.23,0,1.9v7.04V90v4.56c0,0.41-0.01,0.81-0.04,1.2c-0.03,0.39,0.01,0.76,0.12,1.12v0.77c0,0.36,0.01,0.71,0.04,1.04
			c0.03,0.34,0.09,0.63,0.19,0.89c0.36,0.67,1.08,1.01,2.17,1.01s2.14,0,3.17,0h15.01c0.41,0,0.93-0.01,1.55-0.04
			c0.62-0.03,1.21-0.03,1.78,0c0.57,0.03,1.1,0.09,1.59,0.19c0.49,0.1,0.81,0.26,0.97,0.46c0.26,0.31,0.39,0.7,0.39,1.16
			c0,0.46,0,0.96,0,1.47v3.56c0,0.41,0.01,0.8,0.04,1.16c0.03,0.36-0.01,0.67-0.12,0.93c-0.21,0.41-0.46,0.7-0.77,0.85
			c-0.26,0.21-0.65,0.31-1.16,0.31c-0.52,0-1.01,0-1.47,0h-5.49h-20.96h-5.57c-0.72,0-1.35-0.04-1.9-0.12
			c-0.54-0.08-0.94-0.32-1.2-0.73c-0.21-0.31-0.31-0.71-0.31-1.2c0-0.49,0-0.97,0-1.43v-5.41v-20.5V63.78v-4.87
			c0-0.46,0.01-0.93,0.04-1.39c0.03-0.46,0.12-0.82,0.27-1.08c0.21-0.36,0.62-0.62,1.24-0.77c0.1-0.05,0.21-0.06,0.31-0.04
			C327.12,55.65,327.22,55.63,327.32,55.58z"/>
	</g>
	<path class="st0" d="M290.82,164.23c-1.07,0-2.15,0.02-3.22-0.01c-1.23-0.03-1.86-0.61-1.88-1.66c-0.02-1.07,0.6-1.69,1.8-1.73
		c2.22-0.08,4.44-0.33,6.67-0.03c1.19,0.16,1.85,0.76,1.85,1.75c-0.01,1.02-0.77,1.67-2.01,1.69
		C292.97,164.25,291.89,164.24,290.82,164.23C290.82,164.23,290.82,164.23,290.82,164.23z"/>
	<path class="st0" d="M350.68,148.99h-35.95c-0.18,0-0.35,0.04-0.52,0.09c-3.44,0.02-6.13,2.81-6.34,6.67
		c-0.06,1.11-0.01,2.23-0.03,3.35c-0.03,1.68-0.2,1.84-1.84,1.94c-0.58,0.04-1.15,0.09-1.72,0.19c-0.96,0.16-1.45,0.78-1.43,1.73
		c0.02,0.95,0.56,1.52,1.51,1.67c0.41,0.06,0.82,0.1,1.14,0.14c3.44,0.03,5.92-2.38,5.96-5.72c0.01-1.24-0.01-2.48,0.02-3.72
		c0.03-1.68,0.82-2.51,2.48-2.63c0.16-0.01,0.33,0,0.5-0.01c0.23-0.01,0.45-0.04,0.65-0.09h35.59c1,0,1.8-0.81,1.8-1.8
		S351.68,148.99,350.68,148.99z"/>
	<path class="st0" d="M301.19,161.85c-0.02-0.57-0.47-1.02-1.04-1.02h-1.49c-0.58,0-1.06,0.48-1.04,1.06
		c0.05,1.73-0.13,3.46-0.54,5.18c-1.01,4.24-4.49,7.11-8.88,7.19c-0.22,0-0.44,0.01-0.66,0.01h-1.87l0-0.01
		c-1.88,0.01-3.77-0.03-5.66-0.03c0,0.01,0,0.01,0,0.02c-2.53,0-5.05,0.04-7.58-0.01c-3.72-0.07-6.42-2.27-7-5.95
		c-0.06-0.38-0.11-0.75-0.15-1.13c-0.14-1.55-0.23-3.1-0.24-4.66c0.01-1.56,0.1-3.11,0.24-4.66c0.04-0.38,0.09-0.75,0.15-1.13
		c0.57-3.68,3.28-5.88,7-5.95c2.53-0.05,5.05-0.01,7.58-0.01c0,0.01,0,0.01,0,0.02c1.88,0,3.77-0.05,5.66-0.03l0-0.01h1.87
		c0.22,0,0.44,0.01,0.66,0.01c3.79,0.07,6.91,2.22,8.34,5.55c0.2,0.1,2.55,1.22,3.05-1.46c-1.3-2.76-3.17-4.7-5.49-5.96
		c-0.04-0.03-0.08-0.07-0.13-0.1c-1.32-0.72-2.79-1.21-4.36-1.45c-0.45-0.09-0.91-0.16-1.38-0.22c-2.77-0.33-5.55-0.19-8.53-0.22
		c-0.08,0-0.16,0-0.24,0.01c-2.04,0-4.09,0.02-6.13,0.11c-0.09,0-0.17,0.02-0.26,0.02c-0.21,0.01-0.41,0.01-0.62,0.02
		c-2.28,0.1-4.32,0.88-6,2.09c-1.54,1.05-2.76,2.47-3.59,4.21c-0.6,1.19-0.99,2.48-1.13,3.8c-0.01,0.12-0.02,0.24-0.03,0.35
		c0,0.02-0.01,0.04-0.01,0.07c-0.05,0.48-0.08,0.96-0.11,1.44c-0.02,0.26-0.05,0.51-0.06,0.77c-0.03,0.6-0.05,1.2-0.06,1.81
		c-0.01,0.31-0.02,0.62-0.02,0.93c0,0.31,0.01,0.62,0.02,0.93c0.01,0.6,0.02,1.2,0.06,1.81c0.01,0.26,0.04,0.51,0.06,0.77
		c0.04,0.48,0.06,0.96,0.11,1.43c0,0.02,0.01,0.04,0.01,0.06c0.01,0.12,0.02,0.24,0.03,0.36c0.14,1.32,0.53,2.61,1.13,3.8
		c0.83,1.74,2.05,3.15,3.59,4.21c1.68,1.21,3.73,1.98,6,2.09c0.21,0.01,0.41,0.01,0.62,0.02c0.09,0,0.17,0.02,0.26,0.02
		c2.04,0.08,4.08,0.11,6.13,0.11c0.08,0,0.16,0,0.24,0.01c2.98-0.03,5.76,0.11,8.53-0.22c0.47-0.06,0.93-0.13,1.38-0.22
		c1.57-0.24,3.04-0.72,4.36-1.45c0.05-0.03,0.09-0.07,0.13-0.1c2.33-1.26,4.2-3.2,5.49-5.96
		C300.84,167.49,301.3,164.7,301.19,161.85z"/>
	<path class="st0" d="M21.7,172.44l2.39-3.55c2.33,1.81,4.75,3.19,7.27,4.15c2.52,0.95,5.01,1.43,7.47,1.43
		c3.04,0,5.51-0.65,7.41-1.94c1.9-1.29,2.85-2.95,2.85-4.98c0-1.61-0.68-2.94-2.04-3.98c-1.36-1.04-3.25-1.67-5.65-1.87
		c-0.58-0.06-1.41-0.12-2.51-0.18c-5.41-0.38-9.1-1.02-11.07-1.91c-1.53-0.74-2.7-1.69-3.49-2.85c-0.8-1.16-1.19-2.47-1.19-3.92
		c0-2.65,1.18-4.82,3.55-6.53s5.44-2.57,9.22-2.57c2.75,0,5.46,0.45,8.13,1.36c2.68,0.91,5.22,2.24,7.62,4.01l-2.39,3.4
		c-2.03-1.63-4.16-2.86-6.4-3.69c-2.24-0.83-4.54-1.24-6.91-1.24c-2.49,0-4.54,0.48-6.15,1.45c-1.61,0.97-2.42,2.17-2.42,3.63
		c0,0.58,0.13,1.1,0.39,1.58c0.26,0.48,0.66,0.92,1.19,1.34c1.35,1.01,4.28,1.66,8.77,1.94c2.07,0.12,3.67,0.25,4.8,0.39
		c3.34,0.38,5.99,1.45,7.94,3.22c1.95,1.77,2.92,3.95,2.92,6.53c0,3.08-1.34,5.62-4.01,7.61c-2.68,1.99-6.18,2.98-10.52,2.98
		c-3.28,0-6.33-0.48-9.14-1.43C26.92,175.88,24.24,174.41,21.7,172.44z"/>
	<path class="st0" d="M61.32,177.4v-32.94h4.15v13.01H84.9v-13.01h4.12v32.94H84.9v-16.14H65.47v16.14H61.32z"/>
	<path class="st0" d="M113.39,178.26c-4.93,0-9.01-1.63-12.22-4.88c-3.21-3.25-4.82-7.37-4.82-12.37c0-5.01,1.61-9.15,4.83-12.4
		c3.22-3.25,7.29-4.88,12.2-4.88c4.93,0,9.02,1.63,12.26,4.89c3.24,3.26,4.86,7.39,4.86,12.38c0,4.99-1.61,9.12-4.85,12.37
		C122.44,176.64,118.35,178.26,113.39,178.26z M113.39,174.41c3.7,0,6.76-1.26,9.19-3.79c2.43-2.53,3.64-5.73,3.64-9.61
		c0-3.9-1.21-7.11-3.63-9.64s-5.48-3.79-9.21-3.79c-3.7,0-6.76,1.27-9.19,3.8c-2.43,2.54-3.64,5.74-3.64,9.62s1.21,7.08,3.64,9.61
		C106.63,173.15,109.69,174.41,113.39,174.41z"/>
	<path class="st0" d="M212.55,177.4v-33.12h4.15v33.12H212.55z"/>
	<path class="st0" d="M226.61,177.4v-32.94h2.15l21.37,24.62v-24.62h4.12v32.94h-2.09l-21.45-24.62v24.62H226.61z"/>
	<path class="st1" d="M153.18,144.94c2.82,0.31,5.45,1.53,7.84,3.62c0.42,0.36,0.46,1,0.09,1.41c-0.2,0.23-0.47,0.34-0.75,0.34
		c-0.23,0-0.47-0.08-0.66-0.25c-2.07-1.81-4.34-2.87-6.74-3.14c-0.55-0.06-0.94-0.56-0.88-1.1
		C152.14,145.27,152.64,144.88,153.18,144.94z"/>
	<path class="st1" d="M140.79,149.07c0.11-0.1,2.82-2.46,6.78-3.61c0.53-0.15,1.08,0.15,1.24,0.68c0.15,0.53-0.15,1.08-0.68,1.24
		c-3.53,1.02-5.99,3.16-6.01,3.18c-0.19,0.17-0.43,0.25-0.66,0.25c-0.28,0-0.55-0.11-0.75-0.34
		C140.34,150.06,140.38,149.43,140.79,149.07z"/>
	<path class="st0" d="M222.93,122.37c-39.37,0.29-103.84,0.46-109.25-0.35c-3.89-0.6-5.75-4.52-5.97-5.01
		c-1.41-4.06-20.34-58.6-26.19-72.06c-6.81-15.66-14.57-17.57-16.79-17.78c-0.19-0.02-0.38-0.03-0.57-0.03H25.7c-3.31,0-6,2.69-6,6
		s2.69,6,6,6h37.49c0.94,0.55,3.94,2.81,7.33,10.59c5.77,13.27,25.71,70.79,25.91,71.37c0.02,0.07,0.05,0.14,0.08,0.21
		c1.57,4.03,6.56,11.22,15.35,12.57c3.74,0.58,26.18,0.73,50.02,0.73c26.89,0,55.56-0.2,61.14-0.25c3.31-0.02,5.98-2.73,5.96-6.04
		C228.95,125.02,226.25,122.31,222.93,122.37z"/>
	<path class="st1" d="M48.48,31.9H31.3c-3.69,0-4.47,2.4-4.55,2.67c-0.19,0.66-0.79,1.1-1.45,1.1c-0.13,0-0.25-0.02-0.38-0.05
		c-0.79-0.21-1.27-1.01-1.07-1.8c0.43-1.7,2.53-4.93,7.45-4.93h17.18c0.83,0,1.5,0.67,1.5,1.5S49.31,31.9,48.48,31.9z"/>
	<path class="st1" d="M60.89,31.9H55.4c-0.83,0-1.5-0.67-1.5-1.5s0.67-1.5,1.5-1.5h5.49c0.83,0,1.5,0.67,1.5,1.5
		S61.72,31.9,60.89,31.9z"/>
	<path class="st1" d="M224.53,129.26c-0.55,0-1-0.45-1-1c0-0.16-0.05-0.27-0.17-0.39c-0.56-0.54-2.06-0.67-2.73-0.65l-6.04-0.12
		c-0.55-0.01-0.99-0.47-0.98-1.02c0.01-0.55,0.47-0.97,1.02-0.98l5.98,0.12c0.24-0.01,2.82-0.05,4.13,1.22
		c0.51,0.49,0.77,1.12,0.77,1.82C225.53,128.81,225.09,129.26,224.53,129.26z"/>
	<path class="st1" d="M182.29,149.07c0.11-0.1,2.82-2.46,6.78-3.61c0.53-0.15,1.08,0.15,1.24,0.68c0.15,0.53-0.15,1.08-0.68,1.24
		c-3.53,1.02-5.99,3.16-6.01,3.18c-0.19,0.17-0.43,0.25-0.66,0.25c-0.28,0-0.55-0.11-0.75-0.34
		C181.84,150.06,181.88,149.43,182.29,149.07z"/>
	<path class="st1" d="M202.62,149.97c-0.2,0.23-0.47,0.34-0.75,0.34c-0.23,0-0.47-0.08-0.66-0.25c-2.08-1.81-4.34-2.87-6.74-3.14
		c-0.55-0.06-0.94-0.56-0.88-1.1c0.06-0.55,0.57-0.94,1.1-0.88c2.81,0.31,5.45,1.53,7.84,3.62
		C202.94,148.92,202.98,149.55,202.62,149.97z"/>
	<circle class="st0" cx="154.99" cy="64.64" r="53.6"/>
	<path class="st1" d="M147.28,16.4c4.6-0.79,7.65-0.68,7.77-0.67c0.83,0.03,1.47,0.73,1.44,1.56s-0.75,1.46-1.56,1.44
		c-0.03,0-2.88-0.1-7.14,0.63c-0.09,0.01-0.17,0.02-0.26,0.02c-0.72,0-1.35-0.52-1.48-1.25C145.92,17.31,146.47,16.54,147.28,16.4z"
		/>
	<path class="st1" d="M114.89,36.65c8.08-11.49,18.74-16.57,26.26-18.82c0.79-0.23,1.63,0.21,1.87,1.01
		c0.24,0.79-0.21,1.63-1.01,1.87c-7.06,2.11-17.08,6.88-24.66,17.67c-0.29,0.42-0.76,0.64-1.23,0.64c-0.3,0-0.6-0.09-0.86-0.27
		C114.58,38.26,114.42,37.33,114.89,36.65z"/>
	<circle class="st1" cx="154.99" cy="64.64" r="41.22"/>
	<path class="st0" d="M187.84,71.14c0.05-0.34,0.1-0.68,0.12-1.02c0.07-0.9,0.18-1.81,0.23-2.72c0.03-0.91,0.06-1.83,0.1-2.75
		c-0.03-1.89-0.08-3.6-0.29-5.47c-0.01-0.12-0.03-0.23-0.04-0.35c2.37-0.16,3.74-0.28,3.74-0.28s-1.4-0.12-3.8-0.28
		c-0.07-0.6-0.16-1.19-0.27-1.77c-0.07-0.44-0.15-0.87-0.22-1.3c-0.1-0.43-0.19-0.85-0.29-1.27c-0.18-0.84-0.37-1.67-0.63-2.46
		c-0.23-0.8-0.47-1.57-0.75-2.31c-0.26-0.75-0.52-1.47-0.82-2.15c-0.16-0.4-0.33-0.78-0.51-1.15c1.18-0.1,1.84-0.17,1.84-0.17
		s-0.72-0.08-2.01-0.18c-0.07-0.15-0.14-0.3-0.21-0.45c-0.58-1.24-1.22-2.34-1.81-3.28c-0.58-0.95-1.15-1.73-1.63-2.37
		c-0.97-1.26-1.64-1.89-1.64-1.89s0.5,0.76,1.22,2.15c0.36,0.7,0.78,1.55,1.21,2.55c0.22,0.5,0.45,1.03,0.66,1.6
		c0.2,0.49,0.4,1.01,0.59,1.56c-1.67-0.13-3.84-0.27-6.37-0.4c-1.31-0.07-2.74-0.13-4.22-0.19c0-0.01,0-0.01,0-0.02
		c-0.5-1.95-1.07-3.76-1.67-5.41c-0.58-1.65-1.2-3.14-1.8-4.43c-0.22-0.48-0.43-0.93-0.65-1.36c0.18-0.01,0.38-0.03,0.56-0.04
		c3.87-0.29,6.45-0.71,6.45-0.71s-2.58-0.42-6.45-0.71c-0.44-0.04-0.91-0.07-1.38-0.11c-0.07-0.12-0.13-0.24-0.2-0.35
		c-0.49-0.89-0.94-1.56-1.23-2.02c-0.3-0.45-0.48-0.68-0.48-0.68s0.54,1.03,1.28,2.91c0.01,0.03,0.03,0.07,0.04,0.11
		c-1.44-0.1-3-0.18-4.64-0.24c-1.21-0.03-2.46-0.1-3.73-0.11c-0.91-0.01-1.84-0.02-2.77-0.03c-0.2-3.35-0.38-5.35-0.38-5.35
		s-0.17,2-0.37,5.35c-0.11,0-0.22,0-0.33,0c-1.29,0.01-2.58,0.03-3.85,0.04c-1.27,0.01-2.52,0.07-3.73,0.11
		c-1.1,0.04-2.16,0.09-3.18,0.15c0-0.01,0.01-0.02,0.01-0.02c0.75-1.88,1.28-2.91,1.28-2.91s-0.17,0.23-0.48,0.68
		c-0.3,0.46-0.74,1.12-1.23,2.02c-0.05,0.08-0.1,0.18-0.14,0.26c-1.01,0.06-1.98,0.13-2.87,0.2c-3.87,0.29-6.45,0.71-6.45,0.71
		s2.58,0.41,6.45,0.71c0.61,0.05,1.27,0.1,1.94,0.14c-0.2,0.4-0.4,0.81-0.6,1.26c-0.6,1.29-1.22,2.77-1.8,4.43
		c-0.6,1.64-1.17,3.45-1.66,5.38c-2.02,0.07-3.94,0.15-5.67,0.24c-1.84,0.09-3.49,0.19-4.9,0.29c0.18-0.51,0.37-0.99,0.55-1.45
		c0.21-0.57,0.44-1.1,0.66-1.6c0.44-0.99,0.85-1.85,1.21-2.55c0.72-1.4,1.22-2.15,1.22-2.15s-0.66,0.62-1.64,1.89
		c-0.48,0.63-1.06,1.42-1.63,2.37c-0.59,0.94-1.23,2.03-1.81,3.28c-0.05,0.11-0.1,0.22-0.16,0.33c-2.21,0.17-3.5,0.3-3.5,0.3
		s1.18,0.12,3.22,0.28c-0.15,0.34-0.3,0.68-0.45,1.04c-0.3,0.68-0.56,1.4-0.82,2.15c-0.28,0.74-0.52,1.52-0.75,2.31
		c-0.26,0.79-0.45,1.62-0.63,2.46c-0.09,0.42-0.19,0.85-0.29,1.27c-0.07,0.43-0.15,0.87-0.22,1.3c-0.1,0.55-0.18,1.11-0.26,1.68
		c-3.28,0.2-5.25,0.38-5.25,0.38s1.93,0.17,5.17,0.37c-0.01,0.09-0.02,0.17-0.03,0.26c-0.21,1.87-0.26,3.58-0.29,5.47
		c0.03,0.92,0.06,1.83,0.1,2.75c0.05,0.91,0.15,1.82,0.23,2.72c0.02,0.31,0.06,0.62,0.11,0.93c-3.3,0.2-5.28,0.38-5.28,0.38
		s2.02,0.18,5.38,0.38c0.05,0.33,0.11,0.65,0.16,0.97c0.12,0.88,0.31,1.74,0.49,2.58c0.17,0.84,0.36,1.67,0.61,2.46
		c0.22,0.8,0.45,1.58,0.73,2.32c0.46,1.4,1.01,2.68,1.56,3.86c-2.21,0.17-3.49,0.3-3.49,0.3s1.41,0.15,3.79,0.32
		c0.53,1.09,1.08,2.07,1.62,2.92c0.58,0.95,1.16,1.73,1.65,2.36c0.99,1.25,1.67,1.86,1.67,1.86s-0.53-0.74-1.26-2.12
		c-0.37-0.69-0.79-1.54-1.23-2.53c-0.23-0.49-0.45-1.03-0.66-1.6c-0.1-0.24-0.19-0.52-0.29-0.77c1.36,0.09,2.94,0.19,4.7,0.28
		c1.78,0.09,3.75,0.18,5.84,0.25c0.44,1.68,0.93,3.25,1.45,4.7c0.58,1.66,1.19,3.14,1.79,4.44c0.32,0.7,0.63,1.34,0.94,1.92
		c-0.77,0.05-1.52,0.1-2.22,0.16c-3.87,0.29-6.45,0.71-6.45,0.71s2.58,0.41,6.45,0.71c1,0.08,2.08,0.16,3.22,0.22
		c0.4,0.67,0.75,1.19,1.01,1.56c0.31,0.45,0.49,0.67,0.49,0.67s-0.43-0.77-1.05-2.21c0.95,0.05,1.92,0.1,2.94,0.13
		c1.21,0.03,2.46,0.1,3.73,0.11c1.27,0.01,2.56,0.03,3.85,0.04c0.12,0,0.25,0,0.37,0c0.18,2.91,0.33,4.64,0.33,4.64
		s0.15-1.73,0.33-4.64c0.94-0.01,1.89-0.02,2.82-0.03c1.27,0,2.52-0.07,3.73-0.11c1.55-0.06,3.03-0.13,4.4-0.22
		c-0.64,1.49-1.09,2.29-1.09,2.29s0.18-0.23,0.49-0.67c0.26-0.39,0.64-0.94,1.06-1.65c0.6-0.04,1.19-0.08,1.74-0.13
		c3.87-0.29,6.45-0.71,6.45-0.71s-2.58-0.42-6.45-0.71c-0.27-0.02-0.56-0.04-0.84-0.06c0.32-0.61,0.65-1.27,0.99-2.01
		c0.6-1.29,1.22-2.78,1.79-4.44c0.52-1.46,1.02-3.05,1.46-4.74c1.55-0.06,3.03-0.13,4.39-0.2c2.43-0.12,4.53-0.26,6.17-0.38
		c-0.11,0.29-0.21,0.6-0.33,0.87c-0.21,0.57-0.43,1.1-0.66,1.6c-0.44,0.99-0.86,1.85-1.23,2.53c-0.74,1.39-1.26,2.12-1.26,2.12
		s0.69-0.6,1.67-1.86c0.49-0.63,1.08-1.41,1.65-2.36c0.56-0.87,1.13-1.89,1.68-3.03c1.46-0.12,2.3-0.21,2.3-0.21
		s-0.76-0.08-2.11-0.19c0.58-1.2,1.14-2.52,1.61-3.97c0.27-0.74,0.5-1.52,0.73-2.32c0.25-0.79,0.44-1.62,0.61-2.46
		c0.19-0.84,0.37-1.7,0.49-2.58c0.05-0.35,0.11-0.71,0.17-1.06c2.49-0.16,3.93-0.29,3.93-0.29S190.28,71.31,187.84,71.14z
		 M185.61,59.38c0.17,1.66,0.19,3.55,0.2,5.26c-0.02,0.88-0.03,1.76-0.05,2.64c-0.03,0.88-0.12,1.75-0.18,2.61
		c-0.02,0.37-0.06,0.74-0.1,1.1c-1.59-0.09-3.43-0.19-5.47-0.28c-1.79-0.08-3.73-0.16-5.78-0.22c0.06-0.78,0.11-1.56,0.14-2.35
		c0.03-1.16,0.06-2.33,0.09-3.5c-0.02-1.76-0.05-3.45-0.15-5.17c2.02-0.06,3.93-0.14,5.69-0.22c2.08-0.09,3.96-0.19,5.57-0.28
		C185.59,59.12,185.6,59.25,185.61,59.38z M171.47,76.43c-0.07,0.54-0.14,1.08-0.2,1.61c-0.13,1.06-0.26,2.11-0.44,3.13
		c-0.12,0.74-0.23,1.47-0.36,2.18c-1.43-0.05-2.91-0.09-4.44-0.13c-1.87-0.03-3.81-0.1-5.77-0.11c-1.41-0.01-2.85-0.02-4.28-0.03
		c0.04-1.41,0.07-2.85,0.1-4.34c0.03-1.98,0.08-4.02,0.1-6.09c1.7-0.01,3.41-0.02,5.09-0.03c2.3,0,4.57-0.07,6.76-0.11
		c1.29-0.03,2.54-0.06,3.77-0.09c-0.06,0.79-0.13,1.58-0.19,2.36C171.56,75.35,171.52,75.89,171.47,76.43z M139.54,83.3
		c-0.12-0.7-0.23-1.41-0.35-2.14c-0.17-1.02-0.3-2.06-0.44-3.13c-0.07-0.53-0.13-1.07-0.2-1.61c-0.05-0.54-0.09-1.09-0.14-1.64
		c-0.06-0.77-0.13-1.55-0.19-2.33c0.77,0.02,1.54,0.04,2.33,0.05c2.19,0.03,4.46,0.1,6.76,0.11c2.14,0.01,4.32,0.03,6.49,0.04
		c0.02,2.06,0.07,4.1,0.1,6.08c0.03,1.48,0.06,2.92,0.1,4.33c-1.9,0.01-3.81,0.03-5.68,0.04c-1.97,0.01-3.9,0.07-5.77,0.11
		C141.53,83.24,140.53,83.27,139.54,83.3z M137.99,68.07c-0.02-1.14-0.03-2.28-0.05-3.43c0.01-1.65,0.01-3.38,0.09-5.06
		c0.83,0.02,1.67,0.04,2.53,0.06c2.19,0.03,4.46,0.1,6.76,0.11c2.13,0.01,4.3,0.03,6.47,0.04c-0.01,1.61-0.02,3.22-0.03,4.85
		c0.01,1.86,0.02,3.71,0.03,5.56c-2.17,0.01-4.34,0.03-6.47,0.04c-2.3,0.01-4.57,0.07-6.76,0.11c-0.83,0.02-1.65,0.04-2.46,0.06
		C138.05,69.63,138.01,68.85,137.99,68.07z M138.74,51.25c0.14-1.06,0.28-2.11,0.45-3.12c0.08-0.49,0.16-0.97,0.24-1.45
		c1.02,0.03,2.06,0.06,3.13,0.09c1.87,0.03,3.81,0.1,5.77,0.11c1.87,0.01,3.76,0.03,5.65,0.04c-0.03,1.18-0.06,2.39-0.08,3.62
		c-0.03,2.2-0.1,4.48-0.1,6.79c-2.17,0.01-4.35,0.03-6.48,0.04c-2.3,0.01-4.57,0.07-6.76,0.11c-0.82,0.02-1.61,0.04-2.41,0.06
		c0.06-1.01,0.13-2.03,0.23-3.03C138.48,53.4,138.58,52.31,138.74,51.25z M170.59,46.64c0.08,0.49,0.16,0.99,0.24,1.5
		c0.18,1.02,0.32,2.06,0.45,3.12c0.16,1.06,0.26,2.14,0.35,3.24c0.1,1.01,0.18,2.03,0.23,3.06c-1.25-0.03-2.53-0.06-3.84-0.09
		c-2.19-0.03-4.46-0.1-6.76-0.11c-1.68-0.01-3.38-0.02-5.08-0.03c0-2.31-0.07-4.59-0.1-6.8c-0.02-1.24-0.05-2.44-0.08-3.63
		c1.42-0.01,2.85-0.02,4.25-0.03c1.97,0,3.9-0.07,5.77-0.11C167.6,46.73,169.12,46.69,170.59,46.64z M168.03,70.34
		c-2.19-0.03-4.46-0.1-6.76-0.11c-1.67-0.01-3.37-0.02-5.07-0.03c0.01-1.85,0.02-3.7,0.03-5.57c-0.01-1.63-0.02-3.24-0.03-4.86
		c1.7-0.01,3.4-0.02,5.07-0.03c2.3,0,4.57-0.07,6.76-0.11c1.36-0.03,2.67-0.06,3.96-0.09c0.07,1.68,0.08,3.42,0.09,5.09
		c-0.02,1.14-0.03,2.29-0.05,3.43c-0.02,0.79-0.06,1.58-0.11,2.37C170.65,70.4,169.36,70.37,168.03,70.34z M176.27,46.39
		c2.64-0.13,4.89-0.28,6.58-0.41c0.18,0.51,0.36,1.03,0.52,1.59c0.22,0.68,0.43,1.39,0.61,2.13c0.21,0.73,0.38,1.49,0.54,2.27
		c0.08,0.39,0.17,0.78,0.26,1.18c0.07,0.4,0.14,0.8,0.21,1.21c0.07,0.41,0.14,0.82,0.22,1.23c0.05,0.42,0.1,0.84,0.15,1.26
		c0.05,0.43,0.1,0.86,0.15,1.29c-1.59-0.09-3.44-0.19-5.49-0.28c-1.8-0.08-3.76-0.16-5.82-0.22c-0.04-0.56-0.08-1.12-0.12-1.67
		c-0.07-0.57-0.14-1.13-0.22-1.69c-0.14-1.12-0.28-2.23-0.48-3.31c-0.24-1.52-0.55-2.97-0.89-4.38
		C173.8,46.51,175.08,46.45,176.27,46.39z M158.14,34c1.27,0,2.52-0.07,3.73-0.11c1.88-0.07,3.67-0.16,5.28-0.28
		c0.19,0.51,0.38,1.05,0.57,1.64c0.45,1.33,0.9,2.84,1.34,4.5c0.41,1.53,0.79,3.2,1.15,4.96c-1.35-0.05-2.74-0.09-4.18-0.12
		c-1.87-0.03-3.81-0.1-5.77-0.11c-1.43-0.01-2.88-0.02-4.32-0.03c-0.07-2.21-0.14-4.31-0.23-6.23c-0.06-1.52-0.13-2.92-0.2-4.2
		C156.39,34.02,157.27,34.01,158.14,34z M140.96,39.75c0.45-1.66,0.9-3.17,1.34-4.5c0.18-0.55,0.36-1.06,0.54-1.55
		c1.23,0.07,2.52,0.14,3.88,0.19c1.21,0.03,2.46,0.1,3.73,0.11c1.27,0.01,2.56,0.03,3.85,0.04c0.06,0,0.12,0,0.19,0
		c-0.07,1.28-0.13,2.68-0.2,4.19c-0.09,1.91-0.16,4.01-0.23,6.22c-1.92,0.01-3.84,0.03-5.72,0.04c-1.97,0.01-3.9,0.07-5.77,0.11
		c-0.93,0.02-1.84,0.05-2.74,0.07C140.17,42.92,140.56,41.27,140.96,39.75z M124.67,56.83c0.05-0.42,0.1-0.84,0.15-1.26
		c0.07-0.41,0.14-0.82,0.22-1.23c0.07-0.41,0.14-0.81,0.21-1.21c0.09-0.4,0.17-0.79,0.26-1.18c0.16-0.78,0.33-1.54,0.54-2.27
		c0.19-0.74,0.39-1.45,0.61-2.13c0.15-0.52,0.32-1.01,0.49-1.49c1.47,0.1,3.21,0.21,5.18,0.31c1.6,0.09,3.36,0.16,5.21,0.23
		c-0.33,1.4-0.64,2.83-0.88,4.33c-0.2,1.08-0.35,2.19-0.48,3.31c-0.07,0.56-0.14,1.13-0.22,1.69c-0.04,0.54-0.08,1.09-0.12,1.64
		c-2.6,0.07-5.05,0.16-7.26,0.26c-1.46,0.06-2.81,0.13-4.05,0.19C124.57,57.64,124.62,57.24,124.67,56.83z M124.44,69.9
		c-0.06-0.87-0.14-1.74-0.18-2.61c-0.02-0.88-0.03-1.76-0.05-2.64c0-1.71,0.03-3.6,0.2-5.26c0.01-0.11,0.02-0.21,0.03-0.32
		c1.26,0.07,2.64,0.14,4.14,0.2c2.17,0.1,4.58,0.18,7.12,0.26c-0.09,1.7-0.12,3.38-0.15,5.13c0.03,1.17,0.06,2.34,0.09,3.5
		c0.03,0.77,0.08,1.54,0.14,2.31c-2.58,0.07-5.01,0.16-7.21,0.26c-1.46,0.06-2.81,0.13-4.05,0.19
		C124.49,70.58,124.46,70.24,124.44,69.9z M127.31,83.9c-0.02-0.06-0.04-0.11-0.07-0.18c-0.23-0.62-0.43-1.29-0.63-1.97
		c-0.22-0.68-0.41-1.39-0.59-2.13c-0.21-0.73-0.37-1.49-0.52-2.27c-0.08-0.39-0.16-0.78-0.25-1.18c-0.07-0.4-0.13-0.81-0.2-1.21
		c-0.14-0.81-0.28-1.64-0.35-2.49c-0.02-0.17-0.04-0.34-0.06-0.51c1.21,0.06,2.52,0.13,3.94,0.19c2.23,0.1,4.72,0.19,7.35,0.27
		c0.07,0.88,0.18,1.76,0.28,2.63c0.07,0.56,0.14,1.12,0.2,1.67c0.09,0.55,0.18,1.1,0.27,1.64c0.26,1.75,0.63,3.42,1.01,5.03
		c-1.91,0.07-3.72,0.15-5.37,0.23C130.43,83.69,128.74,83.8,127.31,83.9z M154.29,95.95c-1.29,0.01-2.58,0.03-3.85,0.04
		c-1.27,0.01-2.52,0.07-3.73,0.11c-1.29,0.05-2.52,0.11-3.69,0.18c-0.25-0.67-0.52-1.4-0.79-2.21c-0.45-1.33-0.89-2.84-1.33-4.5
		c-0.34-1.32-0.67-2.74-0.97-4.24c0.86,0.03,1.74,0.05,2.63,0.07c1.87,0.03,3.81,0.1,5.77,0.11c1.9,0.01,3.82,0.03,5.75,0.04
		c0.06,1.95,0.13,3.8,0.21,5.51c0.07,1.8,0.15,3.44,0.23,4.9C154.44,95.95,154.37,95.95,154.29,95.95z M169.12,89.56
		c-0.44,1.66-0.88,3.18-1.33,4.5c-0.29,0.84-0.56,1.61-0.82,2.3c-1.56-0.11-3.28-0.2-5.09-0.26c-1.21-0.03-2.46-0.1-3.73-0.11
		c-0.88-0.01-1.78-0.02-2.67-0.03c0.08-1.46,0.16-3.11,0.23-4.91c0.08-1.71,0.14-3.57,0.21-5.52c1.46-0.01,2.91-0.02,4.35-0.03
		c1.97,0,3.9-0.07,5.77-0.11c1.4-0.03,2.75-0.07,4.07-0.12C169.79,86.79,169.46,88.23,169.12,89.56z M185.32,72.46
		c-0.08,0.85-0.21,1.68-0.35,2.49c-0.07,0.41-0.13,0.81-0.2,1.21c-0.08,0.4-0.17,0.79-0.25,1.18c-0.15,0.78-0.31,1.55-0.52,2.27
		c-0.18,0.74-0.38,1.45-0.59,2.13c-0.2,0.69-0.4,1.35-0.63,1.97c-0.03,0.1-0.07,0.18-0.1,0.28c-1.67-0.13-3.86-0.27-6.4-0.4
		c-1.23-0.07-2.57-0.13-3.95-0.18c0.39-1.63,0.76-3.31,1.02-5.08c0.09-0.54,0.18-1.09,0.27-1.64c0.07-0.55,0.14-1.11,0.2-1.67
		c0.11-0.88,0.21-1.77,0.28-2.66c2.1-0.07,4.09-0.14,5.91-0.22c2-0.08,3.81-0.18,5.38-0.27C185.36,72.07,185.34,72.27,185.32,72.46z
		"/>
</g>
</svg>
